<svg xmlns="http://www.w3.org/2000/svg" viewBox="0 0 210 210">
  <path d="M144.147 16.967l-8.563.07h-14.688v178.397h30.538c24.76 0 44.996-20.743 45.095-45.482h.002V69.929h.012v-7.298c0-24.82-20.277-45.665-45.097-45.665zm-84.367 0c-24.759 0-44.995 20.743-45.095 45.482h-.002v80.023h-.012v7.298c0 24.82 20.278 45.665 45.098 45.665h42.203V17.036H67.079v-.069zm.568 14.74v.018h6.73v23.851-23.851h20.206v149.022H67.067v-38.275 38.275h-6.212c-23.388-2.136-30.537-15.791-31.484-34.477v-3.798h37.696l-37.696-.001V69.932h13.647a16.82 16.82 0 00-.04.784 16.82 16.82 0 0016.82 16.82 16.82 16.82 0 0016.82-16.82 16.82 16.82 0 00-9.54-15.14 16.82 16.82 0 00-7.28-1.68 16.82 16.82 0 00-16.78 16.035H29.37v-3.528c.885-18.684 7.893-32.394 30.977-34.696zm96.065 65.441c10.052 0 18.072 8.02 18.072 18.073 0 10.052-8.02 18.072-18.072 18.072s-18.072-8.02-18.072-18.072 8.02-18.073 18.072-18.073z" fill="#fff"/>
</svg>